<svg width="20" height="20" viewBox="0 0 20 20" fill="none" xmlns="http://www.w3.org/2000/svg">
<path d="M2.5 15.0013C2.5 13.1605 3.9925 11.668 5.83333 11.668H9.16667C11.0075 11.668 12.5 13.1605 12.5 15.0013" stroke="#73757C" stroke-width="1.5" stroke-linecap="round" stroke-linejoin="round"/>
<path d="M13.3335 3.87695C14.4843 3.87695 15.4168 4.80945 15.4168 5.96029C15.4168 7.11112 14.4843 8.04362 13.3335 8.04362" stroke="#73757C" stroke-width="1.5" stroke-linecap="round" stroke-linejoin="round"/>
<path d="M9.50424 4.16409C10.611 5.2709 10.611 7.0654 9.50424 8.17221C8.39743 9.27902 6.60293 9.27902 5.49612 8.17221C4.38931 7.0654 4.38931 5.2709 5.49612 4.16409C6.60293 3.05728 8.39743 3.05728 9.50424 4.16409" stroke="#73757C" stroke-width="1.5" stroke-linecap="round" stroke-linejoin="round"/>
<path d="M14.1665 10.834C16.0073 10.834 17.4998 12.3265 17.4998 14.1673" stroke="#73757C" stroke-width="1.5" stroke-linecap="round" stroke-linejoin="round"/>
</svg>
