<svg width="20" height="20" viewBox="0 0 20 20" fill="none" xmlns="http://www.w3.org/2000/svg">
<path fill-rule="evenodd" clip-rule="evenodd" d="M16.2077 16.9967L15.3827 17.4113C15.1489 17.5287 14.8736 17.5296 14.6391 17.4137L13.3287 16.7657L12.0446 17.4107C11.8102 17.5285 11.534 17.529 11.2991 17.4121L10.0002 16.7654L8.7012 17.4121C8.46635 17.529 8.19015 17.5285 7.95573 17.4107L6.67165 16.7657L5.36125 17.4137C5.12675 17.5296 4.85142 17.5287 4.61768 17.4113L3.79268 16.9967C3.51117 16.8552 3.3335 16.5671 3.3335 16.2521V3.74793C3.3335 3.43289 3.51116 3.14478 3.79266 3.00333L4.61766 2.58873C4.8514 2.47127 5.12674 2.47038 5.36123 2.58634L6.67163 3.23433L7.95571 2.58927C8.19014 2.47151 8.46633 2.47101 8.70118 2.58792L10.0002 3.23459L11.2991 2.58792C11.534 2.47101 11.8102 2.47151 12.0446 2.58927L13.3287 3.23433L14.6391 2.58634C14.8736 2.47038 15.1489 2.47127 15.3826 2.58873L16.2076 3.00333C16.4892 3.14478 16.6668 3.43289 16.6668 3.74793V16.2521C16.6668 16.5671 16.4892 16.8552 16.2077 16.9967Z" stroke="#73757C" stroke-width="1.5" stroke-linecap="round" stroke-linejoin="round"/>
<path d="M13.3332 7.50065H6.6665" stroke="#73757C" stroke-width="1.5" stroke-linecap="round" stroke-linejoin="round"/>
<path d="M13.3332 10.0007H6.6665" stroke="#73757C" stroke-width="1.5" stroke-linecap="round" stroke-linejoin="round"/>
<path d="M10.8332 12.5007H6.6665" stroke="#73757C" stroke-width="1.5" stroke-linecap="round" stroke-linejoin="round"/>
</svg>
