<svg width="20" height="20" viewBox="0 0 20 20" fill="none" xmlns="http://www.w3.org/2000/svg">
<path d="M15.4187 15.4727V17.0857C15.4187 17.2543 15.3171 17.4062 15.1613 17.4708C15.0056 17.5353 14.8263 17.4996 14.7071 17.3804L12.7993 15.4727" stroke="#73757C" stroke-width="1.5" stroke-linecap="round" stroke-linejoin="round"/>
<path d="M15.002 7.91602H15.4217C16.5712 7.91602 17.503 8.84782 17.503 9.99727V13.3914C17.503 14.5409 16.5712 15.4727 15.4217 15.4727V15.4727" stroke="#73757C" stroke-width="1.5" stroke-linecap="round" stroke-linejoin="round"/>
<path d="M12.8024 15.4734H10.4138C9.26433 15.4734 8.33252 14.5416 8.33252 13.3921V12.502" stroke="#73757C" stroke-width="1.5" stroke-linecap="round" stroke-linejoin="round"/>
<path fill-rule="evenodd" clip-rule="evenodd" d="M7.2536 10.0012L5.29237 11.9625C5.17315 12.0817 4.99386 12.1173 4.8381 12.0528C4.68234 11.9883 4.58078 11.8363 4.58078 11.6677V10.0012H4.57783C4.02585 10.0012 3.49647 9.7819 3.10616 9.39158C2.71585 9.00127 2.49658 8.47189 2.49658 7.91991V4.5793C2.49658 3.42985 3.42839 2.49805 4.57783 2.49805H10.4195C11.5689 2.49805 12.5007 3.42985 12.5007 4.5793V7.91991C12.5007 8.47189 12.2815 9.00127 11.8912 9.39158C11.5009 9.7819 10.9715 10.0012 10.4195 10.0012H7.2536Z" stroke="#73757C" stroke-width="1.5" stroke-linecap="round" stroke-linejoin="round"/>
</svg>
