<svg width="20" height="20" viewBox="0 0 20 20" fill="none" xmlns="http://www.w3.org/2000/svg">
<ellipse cx="7.50306" cy="8.33615" rx="5.00208" ry="2.0842" stroke="#73757C" stroke-width="1.5" stroke-linecap="round" stroke-linejoin="round"/>
<path d="M12.5051 11.2539C12.5051 12.405 10.2656 13.3381 7.50306 13.3381C4.74048 13.3381 2.50098 12.405 2.50098 11.2539" stroke="#73757C" stroke-width="1.5" stroke-linecap="round" stroke-linejoin="round"/>
<path d="M17.5075 8.33594C17.5075 9.48701 15.2679 10.4201 12.5054 10.4201" stroke="#73757C" stroke-width="1.5" stroke-linecap="round" stroke-linejoin="round"/>
<path d="M12.5051 8.33594V14.5885C12.5051 15.7396 10.2656 16.6727 7.50306 16.6727C4.74048 16.6727 2.50098 15.7396 2.50098 14.5885V8.33594" stroke="#73757C" stroke-width="1.5" stroke-linecap="round" stroke-linejoin="round"/>
<path d="M17.5075 5.41797V11.6706C17.5075 12.8216 15.2679 13.7548 12.5054 13.7548" stroke="#73757C" stroke-width="1.5" stroke-linecap="round" stroke-linejoin="round"/>
<path d="M7.91977 6.2602C7.67228 6.04776 7.52181 5.74381 7.50293 5.41819C7.50293 4.26771 9.74553 3.33398 12.505 3.33398C15.2645 3.33398 17.5071 4.26771 17.5071 5.41819C17.5071 6.56866 15.2645 7.50239 12.505 7.50239C12.3633 7.50239 12.2216 7.50239 12.0882 7.49405" stroke="#73757C" stroke-width="1.5" stroke-linecap="round" stroke-linejoin="round"/>
</svg>
