<svg width="40" height="40" viewBox="0 0 40 40" fill="none" xmlns="http://www.w3.org/2000/svg">
<rect width="40" height="40" rx="10" fill="#FF7A2E"/>
<path d="M12.9999 29.0007H26.9999M19.5619 11.2667C19.6051 11.1883 19.6685 11.1229 19.7456 11.0774C19.8226 11.0318 19.9104 11.0078 19.9999 11.0078C20.0894 11.0078 20.1773 11.0318 20.2543 11.0774C20.3314 11.1229 20.3948 11.1883 20.4379 11.2667L23.3899 16.8707C23.4603 17.0004 23.5586 17.113 23.6776 17.2003C23.7967 17.2876 23.9336 17.3474 24.0785 17.3755C24.2235 17.4036 24.3728 17.3993 24.5159 17.3628C24.6589 17.3264 24.7921 17.2587 24.9059 17.1647L29.1829 13.5007C29.265 13.4339 29.3662 13.3949 29.4719 13.3893C29.5776 13.3836 29.6823 13.4117 29.771 13.4694C29.8598 13.5271 29.9279 13.6115 29.9656 13.7103C30.0033 13.8092 30.0087 13.9175 29.9809 14.0197L27.1469 24.2657C27.0891 24.4753 26.9645 24.6604 26.7919 24.7929C26.6194 24.9253 26.4084 24.9979 26.1909 24.9997H13.8099C13.5923 24.9981 13.381 24.9256 13.2083 24.7932C13.0356 24.6607 12.9108 24.4755 12.8529 24.2657L10.0199 14.0207C9.99219 13.9185 9.99756 13.8102 10.0353 13.7113C10.073 13.6125 10.1411 13.5281 10.2298 13.4704C10.3186 13.4127 10.4233 13.3846 10.529 13.3903C10.6347 13.3959 10.7358 13.4349 10.8179 13.5017L15.0939 17.1657C15.2077 17.2597 15.3409 17.3274 15.484 17.3638C15.6271 17.4003 15.7764 17.4046 15.9213 17.3765C16.0663 17.3484 16.2032 17.2886 16.3222 17.2013C16.4413 17.114 16.5395 17.0014 16.6099 16.8717L19.5619 11.2667Z" stroke="white" stroke-width="2" stroke-linecap="round" stroke-linejoin="round"/>
</svg>
