<svg width="20" height="20" viewBox="0 0 20 20" fill="none" xmlns="http://www.w3.org/2000/svg">
<path fill-rule="evenodd" clip-rule="evenodd" d="M16.5149 11.4988L16.5557 11.4886C17.1123 11.3494 17.5028 10.8492 17.5028 10.2754V9.72667C17.5028 9.15285 17.1123 8.65267 16.5556 8.51348L16.5148 8.50326C16.0904 8.39691 15.7415 8.09581 15.5741 7.69155C15.4068 7.28728 15.4409 6.82766 15.666 6.45249L15.6832 6.42388C15.9822 5.93101 15.9062 5.29772 15.4991 4.88956L15.1111 4.50155C14.7054 4.09579 14.0756 4.01825 13.5835 4.31346L13.5474 4.33514C13.1723 4.5602 12.7127 4.59421 12.3085 4.4268C11.9043 4.25938 11.6034 3.91036 11.4973 3.48596L11.4871 3.44522C11.3479 2.88855 10.8477 2.49805 10.2739 2.49805H9.72518C9.15137 2.49805 8.65118 2.88856 8.512 3.44523L8.50177 3.48608C8.39544 3.91049 8.09434 4.25943 7.69007 4.42675C7.28581 4.59407 6.82618 4.55999 6.45101 4.33487L6.42238 4.3177C5.92952 4.01871 5.29623 4.09468 4.88807 4.50176L4.50007 4.88977C4.0943 5.29545 4.01672 5.92524 4.3119 6.41726L4.33326 6.45286C4.55838 6.82802 4.59247 7.28766 4.42515 7.69192C4.25784 8.09619 3.9089 8.3973 3.48449 8.50364L3.44378 8.51383C2.88712 8.65301 2.49658 9.15316 2.49658 9.72696V10.2758C2.49658 10.8495 2.8869 11.3496 3.44347 11.4888L3.48392 11.4989C3.90838 11.605 4.2575 11.9059 4.42505 12.3101C4.5926 12.7142 4.55878 13.1739 4.33387 13.5492L4.31225 13.5852C4.01705 14.0772 4.09458 14.707 4.5003 15.1127L4.88834 15.5008C5.29394 15.9066 5.92364 15.9841 6.4156 15.689L6.45135 15.6675C6.82652 15.4424 7.28615 15.4083 7.69042 15.5756C8.0947 15.7429 8.39581 16.0919 8.50215 16.5163L8.51235 16.5571C8.65151 17.1137 9.15167 17.5043 9.72548 17.5043H10.2743C10.848 17.5043 11.3481 17.1139 11.4873 16.5574L11.4974 16.5169C11.6035 16.0924 11.9044 15.7433 12.3085 15.5758C12.7127 15.4082 13.1724 15.4421 13.5477 15.667L13.5837 15.6886C14.0757 15.9838 14.7055 15.9063 15.1113 15.5006L15.4993 15.1125C15.9051 14.7069 15.9827 14.0772 15.6875 13.5853L15.6661 13.5495C15.441 13.1743 15.4069 12.7147 15.5742 12.3104C15.7416 11.9062 16.0905 11.6051 16.5149 11.4988Z" stroke="#73757C" stroke-width="1.5" stroke-linecap="round" stroke-linejoin="round"/>
<ellipse cx="9.99955" cy="10.001" rx="1.73149" ry="1.73149" stroke="#73757C" stroke-width="1.5" stroke-linecap="round" stroke-linejoin="round"/>
</svg>
